# xmcd
#
# Track frame offsets: 
#        150
#        14710
#        28346
#        39453
#        52646
#        63206
#        75260
#        88284
#        101586
#        114539
#        126112
#        137680
#        149938
#        162892
#        175519
#        189258
#        202655
#        216466
#        229211
#        243340
#        257721
#        271222
#        284944
#
# Disc length: 3964 seconds
#
# Revision: 1
# Processed by: cddbd v1.5.2PL0 Copyright (c) Steve Scherf et al.
# Submitted via: ExactAudioCopyFreeDBPlugin 1.0
#
DISCID=4e0f7a17
DTITLE=Mitchell's Christian Singers - Complete Recorded Works Vol. 1 (
DTITLE=1934-1936)
DYEAR=1996
DGENRE=Gospel
TTITLE0=When a Man Feels Discouraged
TTITLE1=Them Bones
TTITLE2=What Are They Doing in Heaven?
TTITLE3=Here Am I
TTITLE4=Traveling Shoes
TTITLE5=On My Way
TTITLE6=Mother, Where Was You?
TTITLE7=Swing Low Sweet Chariot
TTITLE8=Lean Your Head Out the Window
TTITLE9=Gonna Shout All Over God's Heaven
TTITLE10=They Scandalized My Name
TTITLE11=Angels Will Roll the Stone Away
TTITLE12=Homey, Homey
TTITLE13=Are You Working on the Building
TTITLE14=How About You?
TTITLE15=Somewhere in Heaven (You'll Find Me)
TTITLE16=Standing by the Bedside
TTITLE17=Got My Ticket
TTITLE18=New Dry Bones
TTITLE19=What Kinda Shoes Do the Angels Wear
TTITLE20=What More Can Jesus Do
TTITLE21=Repair Me
TTITLE22=You See the Sign of Judgement
EXTD=
EXTT0=
EXTT1=
EXTT2=
EXTT3=
EXTT4=
EXTT5=
EXTT6=
EXTT7=
EXTT8=
EXTT9=
EXTT10=
EXTT11=
EXTT12=
EXTT13=
EXTT14=
EXTT15=
EXTT16=
EXTT17=
EXTT18=
EXTT19=
EXTT20=
EXTT21=
EXTT22=
PLAYORDER=
